# xmcd
#
# Track frame offsets:
#   150
#   23682
#   42932
#   65426
#   87633
#   110853
#   131810
#   150144
#   171889
#   192358
#   213020
#   233520
#   254182
#   274387
#   287646
#
# Disc length: 4053 seconds
#
# Revision: 0
# Processed by: cddbd v1.5.2PL0 Copyright (c) Steve Scherf et al.
# Submitted via: uFREEDB 1.6.2
#
DISCID=da0fd30f
DTITLE=kj - ef6
DYEAR=1900
DGENRE=Blues
TTITLE0=0235
TTITLE1=0236
TTITLE2=0237
TTITLE3=0238
TTITLE4=0239
TTITLE5=0240
TTITLE6=0241
TTITLE7=0242
TTITLE8=0243
TTITLE9=0244
TTITLE10=0245
TTITLE11=0246
TTITLE12=0247
TTITLE13=0248
TTITLE14=0249
EXTD=
EXTT0=
EXTT1=
EXTT2=
EXTT3=
EXTT4=
EXTT5=
EXTT6=
EXTT7=
EXTT8=
EXTT9=
EXTT10=
EXTT11=
EXTT12=
EXTT13=
EXTT14=
PLAYORDER=
